HIERARCHY
ROOT hip
{
  OFFSET 0.0 0.0 0.0
  CHANNELS 6 Xposition Yposition Zposition Zrotation Yrotation Xrotation
  JOINT torso
  {
    OFFSET 0.0 0.0 0.0
    CHANNELS 3 Zrotation Xrotation Yrotation
    JOINT neck
    {
      OFFSET -20.11218299999996 327.95800799999995 66.30578600000035
      CHANNELS 3 Zrotation Xrotation Yrotation
      JOINT head
      {
        OFFSET 18.28939800000012 288.83178699999996 217.81652800000006
        CHANNELS 3 Zrotation Xrotation Yrotation
        End Site
        {
          OFFSET 0.0 0.0 0.0
        }
      }
    }
    JOINT left_collar
    {
      OFFSET -20.11218299999996 327.95800799999995 66.30578600000035
      CHANNELS 3 Zrotation Xrotation Yrotation
      JOINT left_upper_arm
      {
        OFFSET -127.08163400000001 -16.17407199999991 15.44799799999987
        CHANNELS 3 Zrotation Xrotation Yrotation
        JOINT left_forearm
        {
          OFFSET -234.267792 45.78796399999999 109.31286600000021
          CHANNELS 3 Zrotation Xrotation Yrotation
          JOINT left_hand
          {
            OFFSET -259.114014 -33.25433399999997 16.18847699999992
            CHANNELS 3 Zrotation Xrotation Yrotation
            End Site
            {
              OFFSET 0.0 0.0 0.0
            }
          }
        }
      }
    }
    JOINT right_collar
    {
      OFFSET -20.11218299999996 327.95800799999995 66.30578600000035
      CHANNELS 3 Zrotation Xrotation Yrotation
      JOINT right_upper_arm
      {
        OFFSET 164.513184 1.5733030000000099 4.892333999999892
        CHANNELS 3 Zrotation Xrotation Yrotation
        JOINT right_forearm
        {
          OFFSET 260.742027 48.718444999999974 144.35229500000014
          CHANNELS 3 Zrotation Xrotation Yrotation
          JOINT right_hand
          {
            OFFSET 287.85150899999996 -44.57171600000015 13.96813899999961
            CHANNELS 3 Zrotation Xrotation Yrotation
            End Site
            {
              OFFSET 0.0 0.0 0.0
            }
          }
        }
      }
    }
  }
}
MOTION
Frames: 11
Frame Time: 0.01
-260.2446013063117 327.5604054726818 1513.2581256180158 0.27318545021401464 5.503509581741157 -4.34127483311872 0.10393581891848923 0.035170925886447324 -0.018826948311006116 -3.3198880184345696 1.006826358527716 2.4316039058761887 0.0 0.0 0.0 -0.3391442972856447 -1.7466684641423378 13.864891477675151 -20.458367195969725 -39.12599546904029 -51.04014547236449 -28.160311246138235 -3.386755776987218 -13.618811020401628 0.0 0.0 0.0 1.8915404318817035 0.10659227816808446 -6.245977412989786 9.855663117586317 -38.54949371467419 64.83118927661323 33.05039582640866 -3.4572964940792557 13.663058466997484 0.0 0.0 0.0
-260.22168270853206 327.5581084509792 1513.183390747313 0.2795818997708453 5.504848031063496 -4.345107832382384 0.10388828363790038 0.03818012119297714 -0.01863015910750803 -3.3143807331515953 0.9808751194566868 2.4294502493704164 0.0 0.0 0.0 -0.33770592633390245 -1.74620028746827 13.861043715822978 -20.45580583638902 -39.11281710353751 -51.0276173205884 -28.179016854376037 -3.3893154477710263 -13.611559227576029 0.0 0.0 0.0 1.8989831927056287 0.10694219623629332 -6.252300009646691 9.869554601333812 -38.56078572602683 64.81663223479336 33.076613252387254 -3.4597035823953215 13.64820825846983 0.0 0.0 0.0
-260.1987761001085 327.5559357586949 1513.105097445394 0.2860700183741162 5.506984183283925 -4.348211893688081 0.10348643513846374 0.04107252673438306 -0.018369115548482973 -3.3083516492014766 0.9543748370375265 2.4269438164200383 0.0 0.0 0.0 -0.3361319312099875 -1.7456097759332694 13.85619532666383 -20.44956628064047 -39.09769077596421 -51.01842444653424 -28.198652513628414 -3.392310980087866 -13.60647017652885 0.0 0.0 0.0 1.9054736588560923 0.10730689544269337 -6.260060542190711 9.88128047595884 -38.57087905140058 64.80495981956524 33.101316979725254 -3.461800719443804 13.633038996116374 0.0 0.0 0.0
-260.1764175303732 327.5536157818114 1513.0237352460194 0.2927010083495082 5.509926714163645 -4.350492378685168 0.10273935246446671 0.04369436887603595 -0.01805523952440293 -3.301893143947867 0.9275919131044225 2.424133543914217 0.0 0.0 0.0 -0.33437159274393874 -1.74489925690498 13.850365055133029 -20.43993756789203 -39.08082214873364 -51.01237119021244 -28.21914351433135 -3.3957700669312585 -13.60387132736501 0.0 0.0 0.0 1.911038955981938 0.10768429199860421 -6.269151858302835 9.890754842710846 -38.57942300159576 64.79595416743179 33.12451462605505 -3.4636330189449893 13.617860311949158 0.0 0.0 0.0
-260.1550868771645 327.55088982792154 1512.939800776308 0.29952335687284215 5.513682959647866 -4.351877224847494 0.10165856848657316 0.04589342734749874 -0.017700343434360315 -3.295097568221725 0.9008004678644566 2.421067844122114 0.0 0.0 0.0 -0.3323709193680719 -1.7440762195801047 13.843613903621486 -20.427270821090854 -39.062477154680636 -51.00924080156391 -28.24037664323922 -3.399707168004154 -13.604037572560397 0.0 0.0 0.0 1.9157223083474257 0.10807198911474561 -6.279442547932276 9.897882531777407 -38.586056111738344 64.78940418654794 33.14623799893297 -3.465252257047167 13.602998033021118 0.0 0.0 0.0
-260.1351973159444 327.5475164547958 1512.8537924669604 0.30658021149716175 5.518255611214542 -4.352319347694218 0.10025821725003806 0.04752397000916607 -0.017316348740066535 -3.2880565394502157 0.874278931474703 2.417794339553845 0.0 0.0 0.0 -0.3300787074611675 -1.7431531514993412 13.836043887127502 -20.411968156895153 -39.042973619389294 -51.008802105503136 -28.26220080594894 -3.4041223766850432 -13.60718157084618 0.0 0.0 0.0 1.919578582062881 0.10846728086193465 -6.29078076653776 9.90257321585788 -38.59042745270825 64.78510151912718 33.1665412402583 -3.466715089313704 13.588784054987965 0.0 0.0 0.0
-260.11708604394875 327.5432750690179 1512.7662054284458 0.31390693287481325 5.523639121240187 -4.351798313974799 0.09855519471770685 0.048451720538675504 -0.016915006057041403 -3.2808603993920156 0.8483066159920368 2.414359719392632 0.0 0.0 0.0 -0.32745190259416046 -1.7421471749051747 13.827795110402024 -20.394470774317583 -39.022671096996106 -51.01081519397121 -28.284429506891506 -3.40900077507869 -13.613445557660079 0.0 0.0 0.0 1.9226704450242458 0.108867174227431 -6.302998089763422 9.904755381897148 -38.59221651173445 64.78283522520435 33.18549846684278 -3.468081231345362 13.575546624466643 0.0 0.0 0.0
-260.10100646286406 327.53796874164993 1512.6775263960717 0.3215289203664111 5.529816020535134 -4.350321268912182 0.09656930692994418 0.04855868957931215 -0.01650762246881037 -3.273597805243224 0.8231602606273359 2.410809694517106 0.0 0.0 0.0 -0.3244598898065976 -1.7410794945526002 13.819041252087862 -20.375246714173166 -39.00195933026351 -51.015035910264594 -28.306845204750267 -3.4143123302365406 -13.622895009264528 0.0 0.0 0.0 1.9250651289417702 0.10926842385923989 -6.315913270880879 9.90438947942637 -38.59115107434712 64.78238585986892 33.20320094350394 -3.469411632250417 13.563601153265099 0.0 0.0 0.0
-260.0871219959882 327.53142622779393 1512.588228682245 0.3294597999509061 5.536753371613424 -4.347923127608197 0.09432337892351815 0.04774769525920961 -0.016104801840804553 -3.266355414541981 0.7991105274784611 2.4071890231681645 0.0 0.0 0.0 -0.3210874901234637 -1.7399746730479317 13.809983587492459 -20.35477871302007 -38.981245744704026 -51.02121899294808 -28.329205419957564 -3.420012359924901 -13.635514510271298 0.0 0.0 0.0 1.9268317537369655 0.10966757343327144 -6.32933575960725 9.90147961224109 -38.5870226226561 64.78351961541033 33.219753810264386 -3.4707666638931207 13.553241667599027 0.0 0.0 0.0
-260.07550169579343 327.5235032103842 1512.4987671246477 0.3377000509993782 5.54439959311952 -4.344666060955207 0.09184330073573126 0.045946395166830585 -0.015716204649950456 -3.2592176206266923 0.7764184224350505 2.403541576828756 0.0 0.0 0.0 -0.31733659112911566 -1.7388597569575348 13.800843750210417 -20.333552508951385 -38.96094239678771 -51.02911985901257 -28.351250324700928 -3.426042565201069 -13.651206105690251 0.0 0.0 0.0 1.9280391543101092 0.11006099759199468 -6.343068845197031 9.896083229346663 -38.579698864090695 64.78598314079588 33.235272374609 -3.472204344241255 13.544732984393407 0.0 0.0 0.0
-260.066117782695 327.51408281339496 1512.409573070899 0.3462361285770083 5.552681890918506 -4.340638319990813 0.08915799387026364 0.04311065226719198 -0.015350335103724988 -3.252266296612935 0.7553316245423961 2.399910416226894 0.0 0.0 0.0 -0.31322647836017425 -1.7377632855166538 13.791855510878243 -20.312045889460915 -38.94145280870947 -51.03849512255301 -28.372711416270423 -3.4323325929473363 -13.66979031064772 0.0 0.0 0.0 1.9287541371422283 0.11044493903488317 -6.356912308296743 9.888318380104748 -38.56913310963138 64.78949956289303 33.2498779845586 -3.4737786103513977 13.538303691348727 0.0 0.0 0.0
